<svg width="530px" height="530px" version="1.1" xmlns="http://www.w3.org/2000/svg"><g transform="translate(265,265)"><style> circle {stroke-width: 1px; stroke: black; fill:none} ._0 {fill: red} ._1 {fill: blue} line {stroke: grey; stroke-width: 1px} .on {display: inline;} .of {display: none;} </style><path d="M -260 -260 h 520 v 520 h -520 v -520" fill="none" stroke="black" stroke-width="2px" /><circle id="v000" cx="0000" cy="0250" r="3" />
<circle id="v001" cx="0062" cy="0242" r="3" />
<circle id="v002" cx="0120" cy="0219" r="3" />
<circle id="v003" cx="0171" cy="0182" r="3" />
<circle id="v004" cx="0211" cy="0133" r="3" />
<circle id="v005" cx="0237" cy="0077" r="3" />
<circle id="v006" cx="0249" cy="0015" r="3" />
<circle id="v007" cx="0245" cy="-046" r="3" />
<circle id="v008" cx="0226" cy="-106" r="3" />
<circle id="v009" cx="0192" cy="-159" r="3" />
<circle id="v010" cx="0146" cy="-202" r="3" />
<circle id="v011" cx="0092" cy="-232" r="3" />
<circle id="v012" cx="0031" cy="-248" r="3" />
<circle id="v013" cx="-031" cy="-248" r="3" />
<circle id="v014" cx="-092" cy="-232" r="3" />
<circle id="v015" cx="-146" cy="-202" r="3" />
<circle id="v016" cx="-192" cy="-159" r="3" />
<circle id="v017" cx="-226" cy="-106" r="3" />
<circle id="v018" cx="-245" cy="-046" r="3" />
<circle id="v019" cx="-249" cy="0015" r="3" />
<circle id="v020" cx="-237" cy="0077" r="3" />
<circle id="v021" cx="-211" cy="0133" r="3" />
<circle id="v022" cx="-171" cy="0182" r="3" />
<circle id="v023" cx="-120" cy="0219" r="3" />
<circle id="v024" cx="-062" cy="0242" r="3" /><line id="E000001" x1="0000" y1="0250" x2="0062" y2="0242" />
<line id="E000002" x1="0000" y1="0250" x2="0120" y2="0219" />
<line id="E000003" x1="0000" y1="0250" x2="0171" y2="0182" />
<line id="E000004" x1="0000" y1="0250" x2="0211" y2="0133" />
<line id="E000005" x1="0000" y1="0250" x2="0237" y2="0077" />
<line id="E000006" x1="0000" y1="0250" x2="0249" y2="0015" />
<line id="E000007" x1="0000" y1="0250" x2="0245" y2="-046" />
<line id="E000008" x1="0000" y1="0250" x2="0226" y2="-106" />
<line id="E000009" x1="0000" y1="0250" x2="0192" y2="-159" />
<line id="E000010" x1="0000" y1="0250" x2="0146" y2="-202" />
<line id="E000011" x1="0000" y1="0250" x2="0092" y2="-232" />
<line id="E000012" x1="0000" y1="0250" x2="0031" y2="-248" />
<line id="E000013" x1="0000" y1="0250" x2="-031" y2="-248" />
<line id="E000014" x1="0000" y1="0250" x2="-092" y2="-232" />
<line id="E000015" x1="0000" y1="0250" x2="-146" y2="-202" />
<line id="E000016" x1="0000" y1="0250" x2="-192" y2="-159" />
<line id="E000017" x1="0000" y1="0250" x2="-226" y2="-106" />
<line id="E000018" x1="0000" y1="0250" x2="-245" y2="-046" />
<line id="E000019" x1="0000" y1="0250" x2="-249" y2="0015" />
<line id="E000020" x1="0000" y1="0250" x2="-237" y2="0077" />
<line id="E000021" x1="0000" y1="0250" x2="-211" y2="0133" />
<line id="E000022" x1="0000" y1="0250" x2="-171" y2="0182" />
<line id="E000023" x1="0000" y1="0250" x2="-120" y2="0219" />
<line id="E000024" x1="0000" y1="0250" x2="-062" y2="0242" />
<line id="E001002" x1="0062" y1="0242" x2="0120" y2="0219" />
<line id="E001003" x1="0062" y1="0242" x2="0171" y2="0182" />
<line id="E001004" x1="0062" y1="0242" x2="0211" y2="0133" />
<line id="E001005" x1="0062" y1="0242" x2="0237" y2="0077" />
<line id="E001006" x1="0062" y1="0242" x2="0249" y2="0015" />
<line id="E001007" x1="0062" y1="0242" x2="0245" y2="-046" />
<line id="E001008" x1="0062" y1="0242" x2="0226" y2="-106" />
<line id="E001009" x1="0062" y1="0242" x2="0192" y2="-159" />
<line id="E001010" x1="0062" y1="0242" x2="0146" y2="-202" />
<line id="E001011" x1="0062" y1="0242" x2="0092" y2="-232" />
<line id="E001012" x1="0062" y1="0242" x2="0031" y2="-248" />
<line id="E001013" x1="0062" y1="0242" x2="-031" y2="-248" />
<line id="E001014" x1="0062" y1="0242" x2="-092" y2="-232" />
<line id="E001015" x1="0062" y1="0242" x2="-146" y2="-202" />
<line id="E001016" x1="0062" y1="0242" x2="-192" y2="-159" />
<line id="E001017" x1="0062" y1="0242" x2="-226" y2="-106" />
<line id="E001018" x1="0062" y1="0242" x2="-245" y2="-046" />
<line id="E001019" x1="0062" y1="0242" x2="-249" y2="0015" />
<line id="E001020" x1="0062" y1="0242" x2="-237" y2="0077" />
<line id="E001021" x1="0062" y1="0242" x2="-211" y2="0133" />
<line id="E001022" x1="0062" y1="0242" x2="-171" y2="0182" />
<line id="E001023" x1="0062" y1="0242" x2="-120" y2="0219" />
<line id="E001024" x1="0062" y1="0242" x2="-062" y2="0242" />
<line id="E002003" x1="0120" y1="0219" x2="0171" y2="0182" />
<line id="E002004" x1="0120" y1="0219" x2="0211" y2="0133" />
<line id="E002005" x1="0120" y1="0219" x2="0237" y2="0077" />
<line id="E002006" x1="0120" y1="0219" x2="0249" y2="0015" />
<line id="E002007" x1="0120" y1="0219" x2="0245" y2="-046" />
<line id="E002008" x1="0120" y1="0219" x2="0226" y2="-106" />
<line id="E002009" x1="0120" y1="0219" x2="0192" y2="-159" />
<line id="E002010" x1="0120" y1="0219" x2="0146" y2="-202" />
<line id="E002011" x1="0120" y1="0219" x2="0092" y2="-232" />
<line id="E002012" x1="0120" y1="0219" x2="0031" y2="-248" />
<line id="E002013" x1="0120" y1="0219" x2="-031" y2="-248" />
<line id="E002014" x1="0120" y1="0219" x2="-092" y2="-232" />
<line id="E002015" x1="0120" y1="0219" x2="-146" y2="-202" />
<line id="E002016" x1="0120" y1="0219" x2="-192" y2="-159" />
<line id="E002017" x1="0120" y1="0219" x2="-226" y2="-106" />
<line id="E002018" x1="0120" y1="0219" x2="-245" y2="-046" />
<line id="E002019" x1="0120" y1="0219" x2="-249" y2="0015" />
<line id="E002020" x1="0120" y1="0219" x2="-237" y2="0077" />
<line id="E002021" x1="0120" y1="0219" x2="-211" y2="0133" />
<line id="E002022" x1="0120" y1="0219" x2="-171" y2="0182" />
<line id="E002023" x1="0120" y1="0219" x2="-120" y2="0219" />
<line id="E002024" x1="0120" y1="0219" x2="-062" y2="0242" />
<line id="E003004" x1="0171" y1="0182" x2="0211" y2="0133" />
<line id="E003005" x1="0171" y1="0182" x2="0237" y2="0077" />
<line id="E003006" x1="0171" y1="0182" x2="0249" y2="0015" />
<line id="E003007" x1="0171" y1="0182" x2="0245" y2="-046" />
<line id="E003008" x1="0171" y1="0182" x2="0226" y2="-106" />
<line id="E003009" x1="0171" y1="0182" x2="0192" y2="-159" />
<line id="E003010" x1="0171" y1="0182" x2="0146" y2="-202" />
<line id="E003011" x1="0171" y1="0182" x2="0092" y2="-232" />
<line id="E003012" x1="0171" y1="0182" x2="0031" y2="-248" />
<line id="E003013" x1="0171" y1="0182" x2="-031" y2="-248" />
<line id="E003014" x1="0171" y1="0182" x2="-092" y2="-232" />
<line id="E003015" x1="0171" y1="0182" x2="-146" y2="-202" />
<line id="E003016" x1="0171" y1="0182" x2="-192" y2="-159" />
<line id="E003017" x1="0171" y1="0182" x2="-226" y2="-106" />
<line id="E003018" x1="0171" y1="0182" x2="-245" y2="-046" />
<line id="E003019" x1="0171" y1="0182" x2="-249" y2="0015" />
<line id="E003020" x1="0171" y1="0182" x2="-237" y2="0077" />
<line id="E003021" x1="0171" y1="0182" x2="-211" y2="0133" />
<line id="E003022" x1="0171" y1="0182" x2="-171" y2="0182" />
<line id="E003023" x1="0171" y1="0182" x2="-120" y2="0219" />
<line id="E003024" x1="0171" y1="0182" x2="-062" y2="0242" />
<line id="E004005" x1="0211" y1="0133" x2="0237" y2="0077" />
<line id="E004006" x1="0211" y1="0133" x2="0249" y2="0015" />
<line id="E004007" x1="0211" y1="0133" x2="0245" y2="-046" />
<line id="E004008" x1="0211" y1="0133" x2="0226" y2="-106" />
<line id="E004009" x1="0211" y1="0133" x2="0192" y2="-159" />
<line id="E004010" x1="0211" y1="0133" x2="0146" y2="-202" />
<line id="E004011" x1="0211" y1="0133" x2="0092" y2="-232" />
<line id="E004012" x1="0211" y1="0133" x2="0031" y2="-248" />
<line id="E004013" x1="0211" y1="0133" x2="-031" y2="-248" />
<line id="E004014" x1="0211" y1="0133" x2="-092" y2="-232" />
<line id="E004015" x1="0211" y1="0133" x2="-146" y2="-202" />
<line id="E004016" x1="0211" y1="0133" x2="-192" y2="-159" />
<line id="E004017" x1="0211" y1="0133" x2="-226" y2="-106" />
<line id="E004018" x1="0211" y1="0133" x2="-245" y2="-046" />
<line id="E004019" x1="0211" y1="0133" x2="-249" y2="0015" />
<line id="E004020" x1="0211" y1="0133" x2="-237" y2="0077" />
<line id="E004021" x1="0211" y1="0133" x2="-211" y2="0133" />
<line id="E004022" x1="0211" y1="0133" x2="-171" y2="0182" />
<line id="E004023" x1="0211" y1="0133" x2="-120" y2="0219" />
<line id="E004024" x1="0211" y1="0133" x2="-062" y2="0242" />
<line id="E005006" x1="0237" y1="0077" x2="0249" y2="0015" />
<line id="E005007" x1="0237" y1="0077" x2="0245" y2="-046" />
<line id="E005008" x1="0237" y1="0077" x2="0226" y2="-106" />
<line id="E005009" x1="0237" y1="0077" x2="0192" y2="-159" />
<line id="E005010" x1="0237" y1="0077" x2="0146" y2="-202" />
<line id="E005011" x1="0237" y1="0077" x2="0092" y2="-232" />
<line id="E005012" x1="0237" y1="0077" x2="0031" y2="-248" />
<line id="E005013" x1="0237" y1="0077" x2="-031" y2="-248" />
<line id="E005014" x1="0237" y1="0077" x2="-092" y2="-232" />
<line id="E005015" x1="0237" y1="0077" x2="-146" y2="-202" />
<line id="E005016" x1="0237" y1="0077" x2="-192" y2="-159" />
<line id="E005017" x1="0237" y1="0077" x2="-226" y2="-106" />
<line id="E005018" x1="0237" y1="0077" x2="-245" y2="-046" />
<line id="E005019" x1="0237" y1="0077" x2="-249" y2="0015" />
<line id="E005020" x1="0237" y1="0077" x2="-237" y2="0077" />
<line id="E005021" x1="0237" y1="0077" x2="-211" y2="0133" />
<line id="E005022" x1="0237" y1="0077" x2="-171" y2="0182" />
<line id="E005023" x1="0237" y1="0077" x2="-120" y2="0219" />
<line id="E005024" x1="0237" y1="0077" x2="-062" y2="0242" />
<line id="E006007" x1="0249" y1="0015" x2="0245" y2="-046" />
<line id="E006008" x1="0249" y1="0015" x2="0226" y2="-106" />
<line id="E006009" x1="0249" y1="0015" x2="0192" y2="-159" />
<line id="E006010" x1="0249" y1="0015" x2="0146" y2="-202" />
<line id="E006011" x1="0249" y1="0015" x2="0092" y2="-232" />
<line id="E006012" x1="0249" y1="0015" x2="0031" y2="-248" />
<line id="E006013" x1="0249" y1="0015" x2="-031" y2="-248" />
<line id="E006014" x1="0249" y1="0015" x2="-092" y2="-232" />
<line id="E006015" x1="0249" y1="0015" x2="-146" y2="-202" />
<line id="E006016" x1="0249" y1="0015" x2="-192" y2="-159" />
<line id="E006017" x1="0249" y1="0015" x2="-226" y2="-106" />
<line id="E006018" x1="0249" y1="0015" x2="-245" y2="-046" />
<line id="E006019" x1="0249" y1="0015" x2="-249" y2="0015" />
<line id="E006020" x1="0249" y1="0015" x2="-237" y2="0077" />
<line id="E006021" x1="0249" y1="0015" x2="-211" y2="0133" />
<line id="E006022" x1="0249" y1="0015" x2="-171" y2="0182" />
<line id="E006023" x1="0249" y1="0015" x2="-120" y2="0219" />
<line id="E006024" x1="0249" y1="0015" x2="-062" y2="0242" />
<line id="E007008" x1="0245" y1="-046" x2="0226" y2="-106" />
<line id="E007009" x1="0245" y1="-046" x2="0192" y2="-159" />
<line id="E007010" x1="0245" y1="-046" x2="0146" y2="-202" />
<line id="E007011" x1="0245" y1="-046" x2="0092" y2="-232" />
<line id="E007012" x1="0245" y1="-046" x2="0031" y2="-248" />
<line id="E007013" x1="0245" y1="-046" x2="-031" y2="-248" />
<line id="E007014" x1="0245" y1="-046" x2="-092" y2="-232" />
<line id="E007015" x1="0245" y1="-046" x2="-146" y2="-202" />
<line id="E007016" x1="0245" y1="-046" x2="-192" y2="-159" />
<line id="E007017" x1="0245" y1="-046" x2="-226" y2="-106" />
<line id="E007018" x1="0245" y1="-046" x2="-245" y2="-046" />
<line id="E007019" x1="0245" y1="-046" x2="-249" y2="0015" />
<line id="E007020" x1="0245" y1="-046" x2="-237" y2="0077" />
<line id="E007021" x1="0245" y1="-046" x2="-211" y2="0133" />
<line id="E007022" x1="0245" y1="-046" x2="-171" y2="0182" />
<line id="E007023" x1="0245" y1="-046" x2="-120" y2="0219" />
<line id="E007024" x1="0245" y1="-046" x2="-062" y2="0242" />
<line id="E008009" x1="0226" y1="-106" x2="0192" y2="-159" />
<line id="E008010" x1="0226" y1="-106" x2="0146" y2="-202" />
<line id="E008011" x1="0226" y1="-106" x2="0092" y2="-232" />
<line id="E008012" x1="0226" y1="-106" x2="0031" y2="-248" />
<line id="E008013" x1="0226" y1="-106" x2="-031" y2="-248" />
<line id="E008014" x1="0226" y1="-106" x2="-092" y2="-232" />
<line id="E008015" x1="0226" y1="-106" x2="-146" y2="-202" />
<line id="E008016" x1="0226" y1="-106" x2="-192" y2="-159" />
<line id="E008017" x1="0226" y1="-106" x2="-226" y2="-106" />
<line id="E008018" x1="0226" y1="-106" x2="-245" y2="-046" />
<line id="E008019" x1="0226" y1="-106" x2="-249" y2="0015" />
<line id="E008020" x1="0226" y1="-106" x2="-237" y2="0077" />
<line id="E008021" x1="0226" y1="-106" x2="-211" y2="0133" />
<line id="E008022" x1="0226" y1="-106" x2="-171" y2="0182" />
<line id="E008023" x1="0226" y1="-106" x2="-120" y2="0219" />
<line id="E008024" x1="0226" y1="-106" x2="-062" y2="0242" />
<line id="E009010" x1="0192" y1="-159" x2="0146" y2="-202" />
<line id="E009011" x1="0192" y1="-159" x2="0092" y2="-232" />
<line id="E009012" x1="0192" y1="-159" x2="0031" y2="-248" />
<line id="E009013" x1="0192" y1="-159" x2="-031" y2="-248" />
<line id="E009014" x1="0192" y1="-159" x2="-092" y2="-232" />
<line id="E009015" x1="0192" y1="-159" x2="-146" y2="-202" />
<line id="E009016" x1="0192" y1="-159" x2="-192" y2="-159" />
<line id="E009017" x1="0192" y1="-159" x2="-226" y2="-106" />
<line id="E009018" x1="0192" y1="-159" x2="-245" y2="-046" />
<line id="E009019" x1="0192" y1="-159" x2="-249" y2="0015" />
<line id="E009020" x1="0192" y1="-159" x2="-237" y2="0077" />
<line id="E009021" x1="0192" y1="-159" x2="-211" y2="0133" />
<line id="E009022" x1="0192" y1="-159" x2="-171" y2="0182" />
<line id="E009023" x1="0192" y1="-159" x2="-120" y2="0219" />
<line id="E009024" x1="0192" y1="-159" x2="-062" y2="0242" />
<line id="E010011" x1="0146" y1="-202" x2="0092" y2="-232" />
<line id="E010012" x1="0146" y1="-202" x2="0031" y2="-248" />
<line id="E010013" x1="0146" y1="-202" x2="-031" y2="-248" />
<line id="E010014" x1="0146" y1="-202" x2="-092" y2="-232" />
<line id="E010015" x1="0146" y1="-202" x2="-146" y2="-202" />
<line id="E010016" x1="0146" y1="-202" x2="-192" y2="-159" />
<line id="E010017" x1="0146" y1="-202" x2="-226" y2="-106" />
<line id="E010018" x1="0146" y1="-202" x2="-245" y2="-046" />
<line id="E010019" x1="0146" y1="-202" x2="-249" y2="0015" />
<line id="E010020" x1="0146" y1="-202" x2="-237" y2="0077" />
<line id="E010021" x1="0146" y1="-202" x2="-211" y2="0133" />
<line id="E010022" x1="0146" y1="-202" x2="-171" y2="0182" />
<line id="E010023" x1="0146" y1="-202" x2="-120" y2="0219" />
<line id="E010024" x1="0146" y1="-202" x2="-062" y2="0242" />
<line id="E011012" x1="0092" y1="-232" x2="0031" y2="-248" />
<line id="E011013" x1="0092" y1="-232" x2="-031" y2="-248" />
<line id="E011014" x1="0092" y1="-232" x2="-092" y2="-232" />
<line id="E011015" x1="0092" y1="-232" x2="-146" y2="-202" />
<line id="E011016" x1="0092" y1="-232" x2="-192" y2="-159" />
<line id="E011017" x1="0092" y1="-232" x2="-226" y2="-106" />
<line id="E011018" x1="0092" y1="-232" x2="-245" y2="-046" />
<line id="E011019" x1="0092" y1="-232" x2="-249" y2="0015" />
<line id="E011020" x1="0092" y1="-232" x2="-237" y2="0077" />
<line id="E011021" x1="0092" y1="-232" x2="-211" y2="0133" />
<line id="E011022" x1="0092" y1="-232" x2="-171" y2="0182" />
<line id="E011023" x1="0092" y1="-232" x2="-120" y2="0219" />
<line id="E011024" x1="0092" y1="-232" x2="-062" y2="0242" />
<line id="E012013" x1="0031" y1="-248" x2="-031" y2="-248" />
<line id="E012014" x1="0031" y1="-248" x2="-092" y2="-232" />
<line id="E012015" x1="0031" y1="-248" x2="-146" y2="-202" />
<line id="E012016" x1="0031" y1="-248" x2="-192" y2="-159" />
<line id="E012017" x1="0031" y1="-248" x2="-226" y2="-106" />
<line id="E012018" x1="0031" y1="-248" x2="-245" y2="-046" />
<line id="E012019" x1="0031" y1="-248" x2="-249" y2="0015" />
<line id="E012020" x1="0031" y1="-248" x2="-237" y2="0077" />
<line id="E012021" x1="0031" y1="-248" x2="-211" y2="0133" />
<line id="E012022" x1="0031" y1="-248" x2="-171" y2="0182" />
<line id="E012023" x1="0031" y1="-248" x2="-120" y2="0219" />
<line id="E012024" x1="0031" y1="-248" x2="-062" y2="0242" />
<line id="E013014" x1="-031" y1="-248" x2="-092" y2="-232" />
<line id="E013015" x1="-031" y1="-248" x2="-146" y2="-202" />
<line id="E013016" x1="-031" y1="-248" x2="-192" y2="-159" />
<line id="E013017" x1="-031" y1="-248" x2="-226" y2="-106" />
<line id="E013018" x1="-031" y1="-248" x2="-245" y2="-046" />
<line id="E013019" x1="-031" y1="-248" x2="-249" y2="0015" />
<line id="E013020" x1="-031" y1="-248" x2="-237" y2="0077" />
<line id="E013021" x1="-031" y1="-248" x2="-211" y2="0133" />
<line id="E013022" x1="-031" y1="-248" x2="-171" y2="0182" />
<line id="E013023" x1="-031" y1="-248" x2="-120" y2="0219" />
<line id="E013024" x1="-031" y1="-248" x2="-062" y2="0242" />
<line id="E014015" x1="-092" y1="-232" x2="-146" y2="-202" />
<line id="E014016" x1="-092" y1="-232" x2="-192" y2="-159" />
<line id="E014017" x1="-092" y1="-232" x2="-226" y2="-106" />
<line id="E014018" x1="-092" y1="-232" x2="-245" y2="-046" />
<line id="E014019" x1="-092" y1="-232" x2="-249" y2="0015" />
<line id="E014020" x1="-092" y1="-232" x2="-237" y2="0077" />
<line id="E014021" x1="-092" y1="-232" x2="-211" y2="0133" />
<line id="E014022" x1="-092" y1="-232" x2="-171" y2="0182" />
<line id="E014023" x1="-092" y1="-232" x2="-120" y2="0219" />
<line id="E014024" x1="-092" y1="-232" x2="-062" y2="0242" />
<line id="E015016" x1="-146" y1="-202" x2="-192" y2="-159" />
<line id="E015017" x1="-146" y1="-202" x2="-226" y2="-106" />
<line id="E015018" x1="-146" y1="-202" x2="-245" y2="-046" />
<line id="E015019" x1="-146" y1="-202" x2="-249" y2="0015" />
<line id="E015020" x1="-146" y1="-202" x2="-237" y2="0077" />
<line id="E015021" x1="-146" y1="-202" x2="-211" y2="0133" />
<line id="E015022" x1="-146" y1="-202" x2="-171" y2="0182" />
<line id="E015023" x1="-146" y1="-202" x2="-120" y2="0219" />
<line id="E015024" x1="-146" y1="-202" x2="-062" y2="0242" />
<line id="E016017" x1="-192" y1="-159" x2="-226" y2="-106" />
<line id="E016018" x1="-192" y1="-159" x2="-245" y2="-046" />
<line id="E016019" x1="-192" y1="-159" x2="-249" y2="0015" />
<line id="E016020" x1="-192" y1="-159" x2="-237" y2="0077" />
<line id="E016021" x1="-192" y1="-159" x2="-211" y2="0133" />
<line id="E016022" x1="-192" y1="-159" x2="-171" y2="0182" />
<line id="E016023" x1="-192" y1="-159" x2="-120" y2="0219" />
<line id="E016024" x1="-192" y1="-159" x2="-062" y2="0242" />
<line id="E017018" x1="-226" y1="-106" x2="-245" y2="-046" />
<line id="E017019" x1="-226" y1="-106" x2="-249" y2="0015" />
<line id="E017020" x1="-226" y1="-106" x2="-237" y2="0077" />
<line id="E017021" x1="-226" y1="-106" x2="-211" y2="0133" />
<line id="E017022" x1="-226" y1="-106" x2="-171" y2="0182" />
<line id="E017023" x1="-226" y1="-106" x2="-120" y2="0219" />
<line id="E017024" x1="-226" y1="-106" x2="-062" y2="0242" />
<line id="E018019" x1="-245" y1="-046" x2="-249" y2="0015" />
<line id="E018020" x1="-245" y1="-046" x2="-237" y2="0077" />
<line id="E018021" x1="-245" y1="-046" x2="-211" y2="0133" />
<line id="E018022" x1="-245" y1="-046" x2="-171" y2="0182" />
<line id="E018023" x1="-245" y1="-046" x2="-120" y2="0219" />
<line id="E018024" x1="-245" y1="-046" x2="-062" y2="0242" />
<line id="E019020" x1="-249" y1="0015" x2="-237" y2="0077" />
<line id="E019021" x1="-249" y1="0015" x2="-211" y2="0133" />
<line id="E019022" x1="-249" y1="0015" x2="-171" y2="0182" />
<line id="E019023" x1="-249" y1="0015" x2="-120" y2="0219" />
<line id="E019024" x1="-249" y1="0015" x2="-062" y2="0242" />
<line id="E020021" x1="-237" y1="0077" x2="-211" y2="0133" />
<line id="E020022" x1="-237" y1="0077" x2="-171" y2="0182" />
<line id="E020023" x1="-237" y1="0077" x2="-120" y2="0219" />
<line id="E020024" x1="-237" y1="0077" x2="-062" y2="0242" />
<line id="E021022" x1="-211" y1="0133" x2="-171" y2="0182" />
<line id="E021023" x1="-211" y1="0133" x2="-120" y2="0219" />
<line id="E021024" x1="-211" y1="0133" x2="-062" y2="0242" />
<line id="E022023" x1="-171" y1="0182" x2="-120" y2="0219" />
<line id="E022024" x1="-171" y1="0182" x2="-062" y2="0242" />
<line id="E023024" x1="-120" y1="0219" x2="-062" y2="0242" /></g></svg>